<svg width="256" height="256" viewBox="0 0 256 256" fill="none" xmlns="http://www.w3.org/2000/svg">
<path d="M199.739 95.9365C199.624 91.61 202.85 87.9987 206.939 87.8352C211.036 87.7143 214.496 91.1117 214.611 95.4383L214.621 96.3242C214.784 100.684 211.558 104.295 207.461 104.416C203.372 104.58 199.912 101.182 199.798 96.8558L199.739 95.9365ZM55.9615 123.167C59.749 124.848 61.5525 129.417 59.9692 133.459C58.8477 136.242 56.3829 137.995 53.6989 138.242C61.0221 152.674 72.1936 164.287 85.5287 171.817C101.106 180.665 119.644 183.962 138.355 179.759C149.983 177.147 160.452 171.909 169.277 164.775C178.47 157.381 185.928 147.846 191.201 137.068C193.077 133.227 197.57 131.73 201.248 133.702C204.885 135.683 206.344 140.418 204.436 144.31C198.218 157.076 189.312 168.403 178.312 177.268C167.753 185.813 155.254 192.04 141.453 195.14C119.202 200.138 97.0898 196.222 78.484 185.701C62.2896 176.504 48.7486 162.314 40.0481 144.595C38.1184 145.872 35.6211 146.211 33.3268 145.261C29.5079 143.631 27.6641 139.071 29.1666 135.048L34.1241 122.077C35.7158 118.078 40.0513 116.216 43.83 117.854L55.9615 123.167ZM198.048 117.189C198.967 112.986 202.939 110.362 206.96 111.324C210.941 112.295 213.434 116.531 212.515 120.735L212.384 121.341C211.465 125.545 207.453 128.178 203.472 127.207C199.451 126.244 196.958 122.008 197.918 117.796L198.048 117.189Z" fill="url(#paint0_linear_2258_1926)"/>
<path fill-rule="evenodd" clip-rule="evenodd" d="M114.929 105.599C114.929 109.188 106.245 112.101 95.5144 112.101C84.784 112.101 76.1 109.188 76.1 105.599V93.2726H114.929V105.599Z" fill="#5C50C6"/>
<path fill-rule="evenodd" clip-rule="evenodd" d="M114.929 94.0054C114.929 97.6132 106.245 100.526 95.5144 100.526C84.784 100.526 76.1 97.6132 76.1 94.0054V81.6788H114.929V94.0054Z" fill="#877ED6"/>
<path fill-rule="evenodd" clip-rule="evenodd" d="M114.929 81.6976C114.929 85.3053 106.245 88.2179 95.5144 88.2179C84.784 88.2179 76.1 85.3053 76.1 81.6976V69.3898H114.929V81.6976Z" fill="#A6ABDB"/>
<path fill-rule="evenodd" clip-rule="evenodd" d="M95.5144 62.8695C106.245 62.8695 114.929 65.782 114.929 69.3898C114.929 72.9788 106.245 75.8913 95.5144 75.8913C84.784 75.8913 76.1 72.9788 76.1 69.3898C76.1 65.782 84.784 62.8695 95.5144 62.8695Z" fill="#D1D1F1"/>
<path fill-rule="evenodd" clip-rule="evenodd" d="M167.976 153.553C167.976 157.142 159.274 160.054 148.544 160.054C137.831 160.054 129.129 157.142 129.129 153.553V141.226H167.976L167.976 153.553Z" fill="#D1D1F1"/>
<path fill-rule="evenodd" clip-rule="evenodd" d="M167.976 141.959C167.976 145.548 159.274 148.479 148.544 148.479C137.831 148.479 129.129 145.548 129.129 141.959V129.632H167.976L167.976 141.959Z" fill="#A6ABDB"/>
<path fill-rule="evenodd" clip-rule="evenodd" d="M167.976 129.651C167.976 133.259 159.274 136.171 148.544 136.171C137.831 136.171 129.129 133.259 129.129 129.651V117.343H167.976L167.976 129.651Z" fill="#877ED6"/>
<path fill-rule="evenodd" clip-rule="evenodd" d="M148.544 110.823C159.274 110.823 167.976 113.735 167.976 117.343C167.976 120.932 159.274 123.845 148.544 123.845C137.831 123.845 129.129 120.932 129.129 117.343C129.129 113.735 137.831 110.823 148.544 110.823Z" fill="#5C50C6"/>
<path d="M121.922 78.6723C120.143 78.6723 118.701 77.1502 118.701 75.2712C118.701 73.3921 120.143 71.8513 121.922 71.8513H122.118C123.898 71.8513 125.339 73.3921 125.339 75.2712C125.339 77.1502 123.898 78.6723 122.118 78.6723H121.922ZM146.942 94.0241C145.696 92.69 145.696 90.5291 146.978 89.2138C148.241 87.8984 150.27 87.9172 151.515 89.2513L153.508 91.3935V84.9295C153.508 83.2196 152.832 81.6412 151.764 80.5137C150.697 79.3863 149.22 78.6723 147.583 78.6723H138.382C136.603 78.6723 135.162 77.1502 135.162 75.2712C135.162 73.3921 136.603 71.8513 138.382 71.8513H147.583C150.999 71.8513 154.096 73.3358 156.32 75.7034C158.562 78.071 159.968 81.3217 159.968 84.9295V91.4498L162.014 89.2513C163.26 87.9172 165.289 87.8984 166.552 89.2138C167.833 90.5291 167.851 92.69 166.605 94.0241L159.025 102.142C157.761 103.457 155.715 103.438 154.469 102.104L146.942 94.0241ZM130.161 78.6723C128.382 78.6723 126.94 77.1502 126.94 75.2712C126.94 73.3921 128.382 71.8513 130.161 71.8513H130.339C132.119 71.8513 133.56 73.3921 133.56 75.2712C133.56 77.1502 132.119 78.6723 130.339 78.6723H130.161Z" fill="#7515EA"/>
<path d="M121.566 144.251C123.364 144.251 124.805 145.773 124.805 147.671C124.805 149.55 123.364 151.072 121.566 151.072H121.388C119.609 151.072 118.15 149.55 118.15 147.671C118.15 145.773 119.609 144.251 121.388 144.251H121.566ZM96.5644 128.899C97.81 130.234 97.7923 132.394 96.5288 133.71C95.2654 135.025 93.219 135.006 91.9733 133.672L89.998 131.549V138.013C89.998 139.723 90.6565 141.282 91.7242 142.41C92.8097 143.556 94.2867 144.251 95.906 144.251H105.106C106.886 144.251 108.345 145.773 108.345 147.671C108.345 149.55 106.886 151.072 105.106 151.072H95.906C92.5072 151.072 89.4109 149.607 87.1686 147.239C84.9265 144.871 83.5385 141.602 83.5385 138.013V131.474L81.4921 133.672C80.2464 135.006 78.2 135.025 76.9366 133.71C75.6732 132.394 75.6554 130.234 76.901 128.899L84.4817 120.782C85.7451 119.467 87.7738 119.485 89.0194 120.819L96.5644 128.899ZM113.345 144.251C115.125 144.251 116.566 145.773 116.566 147.671C116.566 149.55 115.125 151.072 113.345 151.072H113.149C111.37 151.072 109.928 149.55 109.928 147.671C109.928 145.773 111.37 144.251 113.149 144.251H113.345Z" fill="#7515EA"/>
<path d="M85.8685 58.6324C83.2297 55.825 83.2297 51.3172 85.8685 48.5098C88.4701 45.7023 92.7442 45.7023 95.3831 48.5098L99.3227 52.7011L110.25 41.0759C112.888 38.308 117.163 38.308 119.801 41.0759C122.403 43.8834 122.403 48.4307 119.801 51.2381L104.117 67.9247C101.478 70.7322 97.2042 70.7322 94.5654 67.9247L85.8685 58.6324Z" fill="url(#paint1_linear_2258_1926)"/>
<defs>
<linearGradient id="paint0_linear_2258_1926" x1="118.193" y1="99.7441" x2="139.708" y2="195.532" gradientUnits="userSpaceOnUse">
<stop stop-color="#877ED6"/>
<stop offset="1" stop-color="#D1D1F1"/>
</linearGradient>
<linearGradient id="paint1_linear_2258_1926" x1="102.821" y1="39" x2="102.821" y2="70.0303" gradientUnits="userSpaceOnUse">
<stop stop-color="#36C80E"/>
<stop offset="1" stop-color="#2FA90D"/>
</linearGradient>
</defs>
</svg>
